<svg width="30" height="30" viewBox="0 0 30 30" fill="none" xmlns="http://www.w3.org/2000/svg">
<path d="M2.5 15C2.5 12.6635 2.5 11.4952 3.0024 10.625C3.33154 10.0549 3.80493 9.58154 4.375 9.2524C5.24519 8.75 6.41346 8.75 8.75 8.75H21.25C23.5865 8.75 24.7548 8.75 25.625 9.2524C26.1951 9.58154 26.6685 10.0549 26.9976 10.625C27.5 11.4952 27.5 12.6635 27.5 15C27.5 17.3365 27.5 18.5048 26.9976 19.375C26.6685 19.9451 26.1951 20.4185 25.625 20.7476C24.7548 21.25 23.5865 21.25 21.25 21.25H8.75C6.41346 21.25 5.24519 21.25 4.375 20.7476C3.80493 20.4185 3.33154 19.9451 3.0024 19.375C2.5 18.5048 2.5 17.3365 2.5 15Z" stroke="#6C6C70" stroke-width="1.15"/>
<path d="M23.75 5C23.75 3.61929 22.6307 2.5 21.25 2.5H8.75C7.36929 2.5 6.25 3.61929 6.25 5" stroke="#6C6C70" stroke-width="1.15"/>
<path d="M23.75 25C23.75 26.3807 22.6307 27.5 21.25 27.5H8.75C7.36929 27.5 6.25 26.3807 6.25 25" stroke="#6C6C70" stroke-width="1.15"/>
<rect x="6.825" y="13.075" width="6.35" height="1.35" rx="0.675" stroke="#6C6C70" stroke-width="1.15"/>
</svg>
