<svg width="32" height="32" viewBox="0 0 32 32" fill="none" xmlns="http://www.w3.org/2000/svg">
<path d="M13.5251 8.83679C14.5739 6.22213 15.0983 4.91479 16 4.91479C16.9018 4.91479 17.4262 6.22213 18.475 8.83679L18.5239 8.95855C19.1164 10.4357 19.4126 11.1743 20.0164 11.6232C20.6202 12.0721 21.4129 12.1431 22.9981 12.2851L23.2847 12.3107C25.8791 12.5431 27.1763 12.6593 27.4539 13.4846C27.7314 14.3099 26.7681 15.1863 24.8413 16.9393L24.1983 17.5243C23.223 18.4117 22.7353 18.8553 22.508 19.4368C22.4656 19.5453 22.4303 19.6564 22.4025 19.7695C22.2531 20.3757 22.3959 21.0194 22.6815 22.3067L22.7704 22.7074C23.2953 25.0731 23.5577 26.256 23.0995 26.7663C22.9283 26.9569 22.7057 27.0942 22.4585 27.1616C21.7969 27.3422 20.8576 26.5768 18.979 25.046C17.7454 24.0408 17.1286 23.5382 16.4205 23.4252C16.142 23.3807 15.8581 23.3807 15.5796 23.4252C14.8714 23.5382 14.2547 24.0408 13.0211 25.046C11.1425 26.5768 10.2032 27.3422 9.5416 27.1616C9.29437 27.0942 9.07183 26.9569 8.90059 26.7663C8.44236 26.256 8.7048 25.0731 9.2297 22.7074L9.3186 22.3067C9.60422 21.0194 9.74702 20.3757 9.59762 19.7695C9.56975 19.6564 9.5345 19.5453 9.4921 19.4368C9.2648 18.8553 8.77713 18.4117 7.80179 17.5243L7.15874 16.9393C5.23202 15.1863 4.26866 14.3099 4.54623 13.4846C4.8238 12.6593 6.12101 12.5431 8.71543 12.3107L9.00201 12.2851C10.5872 12.1431 11.3798 12.0721 11.9836 11.6232C12.5874 11.1743 12.8837 10.4357 13.4762 8.95855L13.5251 8.83679Z" fill="#FF9E0B" stroke="#FF9E0B"/>
</svg>
