<svg width="32" height="32" viewBox="0 0 32 32" fill="none" xmlns="http://www.w3.org/2000/svg">
<path d="M15.8834 7.50134L16.2143 7.03111L15.8834 7.50134C16.0228 7.5995 16.1452 7.73906 16.5178 8.1862L18.8916 11.0348C19.0009 11.1659 19.1627 11.2417 19.3333 11.2417H23.4667C24.0362 11.2417 24.4288 11.2421 24.7334 11.267C25.0314 11.2914 25.1943 11.3362 25.3136 11.397L25.5746 10.8847L25.3136 11.397C25.5817 11.5336 25.7997 11.7516 25.9363 12.0198C25.9972 12.1391 26.042 12.302 26.0663 12.5999C26.0912 12.9046 26.0917 13.2971 26.0917 13.8667V19.4667C26.0917 20.0362 26.0912 20.4288 26.0663 20.7335C26.042 21.0314 25.9972 21.1943 25.9363 21.3136C25.7997 21.5818 25.5817 21.7998 25.3136 21.9364C25.1943 21.9972 25.0314 22.042 24.7334 22.0663C24.4288 22.0912 24.0362 22.0917 23.4667 22.0917H11.2C10.6305 22.0917 10.2379 22.0912 9.93323 22.0663C9.63528 22.042 9.47241 21.9972 9.35306 21.9364C9.08493 21.7998 8.86694 21.5818 8.73032 21.3136C8.66951 21.1943 8.62468 21.0314 8.60034 20.7335C8.57545 20.4288 8.575 20.0362 8.575 19.4667V9.86669C8.575 9.29715 8.57545 8.90457 8.60034 8.59991C8.62468 8.30197 8.66951 8.13909 8.73032 8.01975C8.86694 7.75162 9.08493 7.53362 9.35306 7.397C9.47241 7.33619 9.63528 7.29137 9.93323 7.26703C10.2379 7.24213 10.6305 7.24169 11.2 7.24169H14.5012C15.0832 7.24169 15.2688 7.24631 15.4335 7.29062C15.5946 7.33397 15.7469 7.4053 15.8834 7.50134Z" stroke="#6C6C70" stroke-width="1.15" stroke-linejoin="round"/>
<path d="M22.6667 21.3334V24.2667C22.6667 25.1068 22.6667 25.5268 22.5032 25.8477C22.3594 26.1299 22.1299 26.3594 21.8477 26.5032C21.5268 26.6667 21.1067 26.6667 20.2667 26.6667H6.4C5.55992 26.6667 5.13988 26.6667 4.81901 26.5032C4.53677 26.3594 4.3073 26.1299 4.16349 25.8477C4 25.5268 4 25.1068 4 24.2667V13.0667C4 12.2266 4 11.8066 4.16349 11.4857C4.3073 11.2035 4.53677 10.974 4.81901 10.8302C5.13988 10.6667 5.55992 10.6667 6.4 10.6667H9.33333" stroke="#6C6C70" stroke-width="1.15" stroke-linejoin="round"/>
</svg>
