<svg width="32" height="32" viewBox="0 0 32 32" fill="none" xmlns="http://www.w3.org/2000/svg">
<path d="M26.6666 16V24C26.6666 25.8856 26.6666 26.8284 26.0809 27.4142C25.4951 28 24.5523 28 22.6666 28H8.66665C8.3571 28 8.20233 28 8.07185 27.9886C6.6215 27.8617 5.47162 26.7118 5.34473 25.2615C5.33331 25.131 5.33331 24.9762 5.33331 24.6667V24.6667C5.33331 24.3571 5.33331 24.2024 5.34473 24.0719C5.47162 22.6215 6.6215 21.4716 8.07185 21.3447C8.20233 21.3333 8.3571 21.3333 8.66665 21.3333H22.6666C24.5523 21.3333 25.4951 21.3333 26.0809 20.7475C26.6666 20.1618 26.6666 19.219 26.6666 17.3333V8C26.6666 6.11438 26.6666 5.17157 26.0809 4.58579C25.4951 4 24.5523 4 22.6666 4H9.33332C7.4477 4 6.50489 4 5.9191 4.58579C5.33331 5.17157 5.33331 6.11438 5.33331 8V24.6667" stroke="#6C6C70" stroke-width="1.15"/>
<path d="M12 10.6666L20 10.6666" stroke="#6C6C70" stroke-width="1.15" stroke-linecap="round"/>
</svg>
