<svg width="32" height="32" viewBox="0 0 32 32" fill="none" xmlns="http://www.w3.org/2000/svg">
<path fill-rule="evenodd" clip-rule="evenodd" d="M21.0809 17.6261C21.2448 17.1134 21.3333 16.567 21.3333 16C21.3333 13.0544 18.9455 10.6666 16 10.6666C15.4329 10.6666 14.8865 10.7551 14.3738 10.9191L15.1959 11.7411C15.4564 11.6922 15.7252 11.6666 16 11.6666C18.3932 11.6666 20.3333 13.6067 20.3333 16C20.3333 16.2747 20.3077 16.5435 20.2588 16.8041L21.0809 17.6261ZM12.5672 13.355C12.0025 14.0868 11.6666 15.0042 11.6666 16C11.6666 18.3932 13.6067 20.3333 16 20.3333C16.9958 20.3333 17.9131 19.9974 18.6449 19.4327L19.3568 20.1446C18.4401 20.8879 17.2721 21.3333 16 21.3333C13.0544 21.3333 10.6666 18.9455 10.6666 16C10.6666 14.7279 11.112 13.5598 11.8553 12.6432L12.5672 13.355Z" fill="#222222"/>
<path fill-rule="evenodd" clip-rule="evenodd" d="M24.295 20.8403C25.7454 19.5847 26.8841 18.2724 27.5905 17.384L27.6502 17.3092C27.9749 16.9029 28.2746 16.5277 28.2746 16C28.2746 15.4723 27.9749 15.0971 27.6502 14.6908L27.5905 14.616C26.7094 13.5078 25.1557 11.7403 23.1637 10.2458C21.1768 8.75513 18.7056 7.5 16.0001 7.5C14.5471 7.5 13.1618 7.86197 11.8827 8.42801L12.6457 9.19105C13.7151 8.76068 14.8415 8.5 16.0001 8.5C18.3993 8.5 20.6606 9.61797 22.5635 11.0457C24.4614 12.4695 25.9548 14.1655 26.8078 15.2383C27.2285 15.7674 27.2746 15.8617 27.2746 16C27.2746 16.1383 27.2285 16.2326 26.8078 16.7617C26.1146 17.6335 24.9984 18.9169 23.586 20.1313L24.295 20.8403ZM21.8592 22.6471L21.1315 21.9194C19.5649 22.8551 17.8223 23.5 16.0001 23.5C13.6008 23.5 11.3396 22.382 9.43658 20.9543C7.53875 19.5305 6.04533 17.8345 5.1923 16.7617C4.77159 16.2326 4.72546 16.1383 4.72546 16C4.72546 15.8617 4.77159 15.7674 5.1923 15.2383C6.04533 14.1655 7.53875 12.4695 9.43658 11.0457C9.59289 10.9284 9.75162 10.8132 9.91264 10.7006L9.19519 9.98313C9.07394 10.0697 8.95435 10.1573 8.83646 10.2458C6.84444 11.7403 5.29067 13.5078 4.40957 14.616L4.34987 14.6908C4.02524 15.0971 3.72546 15.4723 3.72546 16C3.72546 16.5277 4.02524 16.9029 4.34987 17.3092L4.40957 17.384C5.29067 18.4922 6.84444 20.2597 8.83646 21.7542C10.8233 23.2449 13.2945 24.5 16.0001 24.5C18.1412 24.5 20.1355 23.7139 21.8592 22.6471Z" fill="#222222"/>
<path d="M6.66663 2.66663L28 24" stroke="#222222"/>
</svg>
