<svg width="28" height="28" viewBox="0 0 28 28" fill="none" xmlns="http://www.w3.org/2000/svg">
<path d="M22.1666 15.1667V18.5C22.1666 21.3284 22.1666 22.7426 21.2879 23.6213C20.4092 24.5 18.995 24.5 16.1666 24.5H11.8332C9.00482 24.5 7.59061 24.5 6.71193 23.6213C5.83325 22.7426 5.83325 21.3284 5.83325 18.5V9.5C5.83325 6.67157 5.83325 5.25736 6.71193 4.37868C7.59061 3.5 9.00482 3.5 11.8333 3.5H13.9999" stroke="#222222" stroke-linecap="round"/>
<path d="M21 3.5L21 10.5" stroke="#222222" stroke-linecap="round"/>
<path d="M24.5 7L17.5 7" stroke="#222222" stroke-linecap="round"/>
<path d="M10.5 15.1666L17.5 15.1666" stroke="#222222" stroke-linecap="round"/>
<path d="M10.5 10.5L15.1667 10.5" stroke="#222222" stroke-linecap="round"/>
<path d="M10.5 19.8334L15.1667 19.8334" stroke="#222222" stroke-linecap="round"/>
</svg>
