<svg width="24" height="32" viewBox="0 0 24 32" fill="none" xmlns="http://www.w3.org/2000/svg">
<path d="M4 12C4 8.22876 4 6.34315 4.87868 5.17157C5.75736 4 7.17157 4 10 4H14C16.8284 4 18.2426 4 19.1213 5.17157C20 6.34315 20 8.22876 20 12V21.1035C20 24.6812 20 26.4701 19.1557 27.0172C18.3114 27.5643 17.2565 26.4591 15.1465 24.2488L14.4713 23.5413C13.2849 22.2985 12.6917 21.677 12 21.677C11.3083 21.677 10.7151 22.2985 9.52871 23.5413L8.85346 24.2488C6.74355 26.4591 5.68859 27.5643 4.84429 27.0172C4 26.4701 4 24.6812 4 21.1035V12Z" stroke="#222222"/>
</svg>
