<svg width="18" height="24" viewBox="0 0 18 24" fill="none" xmlns="http://www.w3.org/2000/svg">
<path d="M3 9C3 6.17157 3 4.75736 3.65901 3.87868C4.31802 3 5.37868 3 7.5 3H10.5C12.6213 3 13.682 3 14.341 3.87868C15 4.75736 15 6.17157 15 9V15.8276C15 18.5109 15 19.8525 14.3668 20.2629C13.7336 20.6733 12.9423 19.8444 11.3599 18.1866L10.8535 17.656C9.96368 16.7239 9.51879 16.2578 9 16.2578C8.48121 16.2578 8.03632 16.7239 7.14653 17.656L6.6401 18.1866C5.05766 19.8444 4.26644 20.6733 3.63322 20.2629C3 19.8525 3 18.5109 3 15.8276V9Z" stroke="#222222"/>
</svg>
